<svg version="1.1" id="Layer_1" xmlns="http://www.w3.org/2000/svg" xmlns:xlink="http://www.w3.org/1999/xlink" x="0px" y="0px"
	 width="100%" viewBox="12 12 50 50" enable-background="new 0 0 72 72" xml:space="preserve">

<path fill="CurrentColor" opacity="1.000000" stroke="none" 
	d="
M48.477844,59.906860 
	C36.761063,59.920284 25.487518,59.920284 14.108628,59.920284 
	C14.504775,53.275185 15.131081,47.026123 15.157849,40.774498 
	C15.174767,36.823624 14.434438,32.846348 13.791343,28.920626 
	C12.448924,20.725922 16.978230,14.609251 25.280634,14.284995 
	C32.920441,13.986616 40.590027,14.017952 48.231007,14.309674 
	C55.246105,14.577499 58.979839,18.841307 59.021019,25.959282 
	C59.062401,33.112305 59.043736,40.265793 59.026360,47.419014 
	C59.008083,54.941704 56.484524,58.039726 48.477844,59.906860 
M21.514215,37.816650 
	C21.514215,42.890179 21.514215,47.963711 21.514215,53.272675 
	C29.090834,53.272675 36.728722,53.462212 44.351555,53.205170 
	C49.324711,53.037476 52.279701,50.176640 52.487610,45.450352 
	C52.735905,39.805931 52.687168,34.129005 52.388477,28.486206 
	C52.155960,24.093588 49.703213,21.440228 45.032124,21.321613 
	C41.372322,21.228683 37.713036,21.020281 34.053658,21.023458 
	C21.543722,21.034319 20.018749,22.720194 21.260492,34.918049 
	C21.327921,35.580418 21.377142,36.244640 21.514215,37.816650 
z"/>
</svg>