<svg version="1.1" id="Layer_1" xmlns="http://www.w3.org/2000/svg" xmlns:xlink="http://www.w3.org/1999/xlink" x="0px" y="0px"
	 width="100%" viewBox="12 12 50 50" enable-background="new 0 0 72 72" xml:space="preserve">

<path fill="currentColor" opacity="1.000000" stroke="none" 
	d="
M55.681343,59.922333 
	C46.385994,59.925144 37.562550,59.952633 28.739336,59.919018 
	C19.785961,59.884911 14.013251,54.218250 13.978331,45.403324 
	C13.937629,35.129070 13.968828,24.854536 13.968828,14.369534 
	C29.015026,14.369534 43.583454,14.369534 58.776901,14.369534 
	C58.776901,21.822273 58.776943,29.090799 58.776890,36.359325 
	C58.776840,43.018452 58.907581,49.682487 58.658306,56.332275 
	C58.612366,57.557827 57.027756,58.725704 55.681343,59.922333 
M22.953554,21.236761 
	C22.044886,22.262459 20.384077,23.263624 20.349693,24.317837 
	C20.127575,31.127949 20.132717,37.953278 20.326883,44.766109 
	C20.435917,48.591812 22.465666,52.224548 26.197300,52.485680 
	C34.699379,53.080627 43.271584,52.673412 51.656277,52.673412 
	C51.656277,41.999180 51.656277,31.795473 51.656277,21.233688 
	C42.122803,21.233688 33.001358,21.233688 22.953554,21.236761 
z"/>
</svg>