<svg version="1.1" id="Layer_1" xmlns="http://www.w3.org/2000/svg" xmlns:xlink="http://www.w3.org/1999/xlink" x="0px" y="0px"
	 width="100%" viewBox="12 12 50 50" enable-background="new 0 0 72 72" xml:space="preserve">

<path fill="CurrentColor" opacity="1.000000" stroke="none" 
	d="
M26.014933,60.020172 
	C21.876532,60.020172 18.234875,60.020172 14.155664,60.020172 
	C14.155664,48.838657 13.772890,37.893227 14.299964,26.991781 
	C14.613562,20.505625 21.569590,15.020313 28.724224,14.671523 
	C34.042332,14.412264 39.393234,14.398080 44.710991,14.656353 
	C53.337570,15.075332 58.994774,21.283024 59.015190,29.972076 
	C59.028503,35.636242 59.076618,41.301243 59.002495,46.964474 
	C58.908485,54.147598 53.231373,59.874191 46.002747,59.996479 
	C39.507446,60.106354 33.008831,60.019978 26.014933,60.020172 
M52.731491,36.577873 
	C52.730709,35.245193 52.740967,33.912403 52.727333,32.579857 
	C52.646233,24.652884 49.814686,21.840893 41.800095,21.789598 
	C37.635914,21.762947 33.467587,21.700739 29.307878,21.846781 
	C24.953577,21.999655 21.503666,24.327705 21.227554,28.562355 
	C20.692762,36.764317 21.071243,45.025829 21.071243,53.624840 
	C26.606800,53.624840 31.580818,53.626907 36.554832,53.624458 
	C51.766247,53.616974 52.724873,52.661983 52.731491,36.577873 
z"/>
</svg>