<?xml version="1.0" encoding="iso-8859-1"?>
<!-- Uploaded to: SVG Repo, www.svgrepo.com, Generator: SVG Repo Mixer Tools -->
<!DOCTYPE svg PUBLIC "-//W3C//DTD SVG 1.1//EN" "http://www.w3.org/Graphics/SVG/1.1/DTD/svg11.dtd">
<svg fill="currentColor" version="1.1" id="Capa_1" xmlns="http://www.w3.org/2000/svg" xmlns:xlink="http://www.w3.org/1999/xlink" 
	 width="800px" height="800px" viewBox="0 0 320.794 320.795"
	 xml:space="preserve">
<g>
	<g>
		<path d="M279.785,117.868h-0.246c-1.393-3.873-3.014-7.752-4.857-11.61l0.21-0.201c15.997-16,15.997-42.009,0-58.003l-2.149-2.147
			c-7.746-7.746-18.045-12.015-28.991-12.015c-10.965,0-21.257,4.269-29.01,12.015l-0.21,0.205
			c-3.843-1.838-7.729-3.456-11.607-4.853v-0.252C202.923,18.393,184.531,0,161.917,0h-3.038c-22.614,0-41.007,18.393-41.007,41.007
			v0.252c-3.879,1.396-7.758,3.015-11.61,4.853l-0.207-0.205c-7.749-7.746-18.047-12.015-29-12.015
			c-10.956,0-21.248,4.269-28.997,12.015l-2.153,2.153c-7.747,7.743-12.007,18.042-12.007,28.991
			c0,10.953,4.26,21.257,12.007,29.006l0.21,0.201c-1.843,3.858-3.461,7.737-4.858,11.61H41.01
			c-22.614,0-41.007,18.393-41.007,41.007v3.039c0,22.614,18.393,41.012,41.007,41.012h0.246c1.396,3.873,3.015,7.753,4.852,11.602
			l-0.204,0.21c-15.988,15.991-15.988,42.004,0,58.001l2.153,2.155c7.749,7.746,18.047,12.01,28.997,12.01
			c10.953,0,21.251-4.264,29-12.01l0.207-0.216c3.853,1.844,7.731,3.465,11.61,4.863v0.24c0,22.614,18.393,41.014,41.007,41.014
			h3.038c22.614,0,41.007-18.399,41.007-41.014v-0.24c3.879-1.398,7.765-3.02,11.607-4.863l0.21,0.216
			c7.753,7.746,18.045,12.01,28.997,12.01c10.959,0,21.258-4.264,29.004-12.01l2.149-2.155c7.746-7.746,12.01-18.045,12.01-29.004
			c0-10.952-4.264-21.244-12.01-28.99l-0.21-0.217c1.844-3.849,3.465-7.729,4.857-11.602h0.246c22.62,0,41.007-18.398,41.007-41.012
			v-3.039C320.792,136.261,302.405,117.868,279.785,117.868z M160.404,212.876c-28.938,0-52.482-23.545-52.482-52.476
			c0-28.943,23.544-52.482,52.482-52.482c28.937,0,52.481,23.539,52.481,52.482C212.892,189.331,189.34,212.876,160.404,212.876z"/>
	</g>
</g>
</svg>